<svg width="49" height="34" viewBox="0 0 49 34" fill="none" xmlns="http://www.w3.org/2000/svg">
<rect width="49" height="34" rx="8" fill="#FFCD27"/>
<g clip-path="url(#clip0_2059_24)">
<path d="M34.1084 13.5005H32.678V13.3398C32.678 12.94 32.3527 12.6147 31.9529 12.6147H29.1318C28.9374 12.6147 28.7798 12.7723 28.7798 12.9668C28.7798 13.1613 28.9374 13.3189 29.1318 13.3189H31.9529C31.9645 13.3189 31.9739 13.3283 31.9739 13.3398V17.6325C31.9739 17.827 32.1315 17.9845 32.326 17.9845C32.5204 17.9845 32.678 17.827 32.678 17.6325V14.2046H34.1084C34.156 14.2046 34.1947 14.2433 34.1947 14.2909V26.5735C34.1947 27.3791 33.5393 28.0346 32.7336 28.0346H15.3232C14.5175 28.0346 13.8621 27.3791 13.8621 26.5735V14.2909C13.8621 14.2433 13.9008 14.2046 13.9484 14.2046H15.4257V26.2457C15.4257 26.7421 15.8296 27.146 16.3261 27.146H31.7776C32.2741 27.146 32.678 26.7421 32.678 26.2457V19.1341C32.678 18.9396 32.5203 18.782 32.3259 18.782C32.1315 18.782 31.9739 18.9396 31.9739 19.1341V24.2005H26.2778C25.5401 24.2005 24.8743 24.5125 24.4039 25.0108V20.4568C24.4039 20.2623 24.2463 20.1047 24.0519 20.1047C23.8574 20.1047 23.6998 20.2623 23.6998 20.4568V25.0109C23.2294 24.5125 22.5636 24.2006 21.8259 24.2006H20.2261C20.0317 24.2006 19.8741 24.3581 19.8741 24.5526C19.8741 24.7471 20.0317 24.9047 20.2261 24.9047H21.8259C22.7442 24.9047 23.5098 25.5689 23.669 26.4419H16.3261C16.2178 26.4419 16.1298 26.3539 16.1298 26.2457V24.9047H18.7245C18.9189 24.9047 19.0766 24.7471 19.0766 24.5526C19.0766 24.3581 18.9189 24.2006 18.7245 24.2006H16.1298V13.3398C16.1298 13.3283 16.1392 13.3189 16.1508 13.3189H18.9719C19.1663 13.3189 19.3239 13.1613 19.3239 12.9668C19.3239 12.7723 19.1663 12.6147 18.9719 12.6147H16.1508C15.751 12.6147 15.4257 12.94 15.4257 13.3398V13.5005H13.9484C13.5126 13.5005 13.158 13.8551 13.158 14.2909V26.5735C13.158 27.7674 14.1293 28.7387 15.3232 28.7387H32.7335C33.9274 28.7387 34.8987 27.7674 34.8987 26.5735V14.2909C34.8988 13.8551 34.5442 13.5005 34.1084 13.5005ZM26.2778 24.9046H31.9739V26.2457C31.9739 26.3539 31.8858 26.4419 31.7776 26.4419H24.4348C24.5939 25.5688 25.3595 24.9046 26.2778 24.9046Z" fill="#122E5E"/>
<path d="M19.3581 9.67845C19.5513 9.69638 19.7234 9.55457 19.7416 9.36098C19.8423 8.29335 20.3353 7.30486 21.1299 6.57765C21.9295 5.84593 22.9672 5.44289 24.052 5.44289C26.4396 5.44289 28.382 7.38532 28.382 9.77285C28.382 10.6713 28.1093 11.5328 27.5935 12.2645C27.5906 12.2687 27.5878 12.2729 27.585 12.2771L25.3321 15.7845C25.2956 15.8413 25.2762 15.9073 25.2762 15.9748V16.4309C25.2762 16.5234 25.2009 16.5987 25.1084 16.5987H25.0854L25.3097 12.793H25.7107C26.2846 12.793 26.7515 12.3261 26.7515 11.7522V11.7095C26.7515 11.1356 26.2846 10.6688 25.7107 10.6688C25.1605 10.6688 24.7042 11.099 24.6718 11.6483L24.6458 12.0888H23.4112L23.3853 11.6483C23.3529 11.099 22.8965 10.6688 22.3463 10.6688C21.7724 10.6688 21.3055 11.1356 21.3055 11.7095V11.7522C21.3055 12.3261 21.7724 12.793 22.3463 12.793H22.7474L22.9715 16.5963C22.8904 16.5845 22.8278 16.5152 22.8278 16.4309V15.9748C22.8278 15.9073 22.8084 15.8413 22.772 15.7845L20.519 12.2771C20.5163 12.2729 20.5135 12.2687 20.5106 12.2645C20.1866 11.805 19.9585 11.2943 19.8326 10.7466C19.789 10.5571 19.5999 10.4389 19.4106 10.4824C19.2211 10.526 19.1028 10.7149 19.1464 10.9044C19.2923 11.539 19.5562 12.1309 19.9307 12.6639L22.1238 16.078V16.4308C22.1238 16.7863 22.3379 17.0923 22.6437 17.2279V17.8232C22.6437 18.4497 23.1533 18.9594 23.7798 18.9594H24.3245C24.9509 18.9594 25.4606 18.4497 25.4606 17.8232V17.2279C25.7664 17.0923 25.9805 16.7863 25.9805 16.4308V16.078L28.1736 12.6639C28.7707 11.8142 29.0863 10.8146 29.0863 9.7728C29.0861 6.99702 26.8278 4.73877 24.052 4.73877C22.7908 4.73877 21.5842 5.20738 20.6545 6.05824C19.7309 6.90365 19.1577 8.05306 19.0407 9.29489C19.0223 9.48852 19.1645 9.66024 19.3581 9.67845ZM25.3747 11.6897C25.3851 11.512 25.5328 11.3728 25.7107 11.3728C25.8964 11.3728 26.0474 11.5239 26.0474 11.7095V11.7522C26.0474 11.9378 25.8964 12.0888 25.7107 12.0888H25.3512L25.3747 11.6897ZM22.3463 12.0888C22.1606 12.0888 22.0096 11.9378 22.0096 11.7522V11.7095C22.0096 11.5239 22.1606 11.3728 22.3463 11.3728C22.5243 11.3728 22.6719 11.512 22.6824 11.6897L22.7059 12.0888H22.3463ZM24.6043 12.7929L24.3801 16.5987H23.677L23.4528 12.7929H24.6043ZM24.7563 17.8233C24.7563 18.0615 24.5625 18.2553 24.3243 18.2553H23.7796C23.5414 18.2553 23.3476 18.0615 23.3476 17.8233V17.3028H24.7563V17.8233H24.7563Z" fill="#122E5E"/>
<path d="M30.2189 7.41223C30.3014 7.41223 30.3842 7.38341 30.451 7.32474L31.2192 6.65028C31.3653 6.52204 31.3797 6.29954 31.2515 6.15346C31.1232 6.00738 30.9008 5.99292 30.7546 6.12116L29.9865 6.79561C29.8404 6.92386 29.8259 7.14636 29.9542 7.29244C30.0238 7.37172 30.1211 7.41223 30.2189 7.41223Z" fill="#122E5E"/>
<path d="M29.9865 9.53535L30.7546 10.2098C30.8215 10.2686 30.9043 10.2973 30.9868 10.2973C31.0846 10.2973 31.1819 10.2568 31.2515 10.1776C31.3798 10.0315 31.3653 9.80902 31.2192 9.68072L30.4511 9.00623C30.305 8.87789 30.0826 8.89239 29.9543 9.03852C29.8259 9.1846 29.8403 9.40701 29.9865 9.53535Z" fill="#122E5E"/>
<path d="M16.8847 6.65009L17.6528 7.32455C17.7197 7.38327 17.8025 7.41204 17.885 7.41204C17.9827 7.41204 18.0801 7.37153 18.1497 7.29225C18.278 7.14617 18.2635 6.92367 18.1174 6.79542L17.3492 6.12097C17.2031 5.99263 16.9806 6.00714 16.8524 6.15327C16.7241 6.29935 16.7386 6.5218 16.8847 6.65009Z" fill="#122E5E"/>
<path d="M17.1173 10.2975C17.1998 10.2975 17.2826 10.2687 17.3495 10.21L18.1176 9.53554C18.2637 9.40725 18.2782 9.18479 18.1499 9.03871C18.0216 8.89263 17.7992 8.87817 17.653 9.00642L16.8849 9.68091C16.7388 9.80921 16.7244 10.0317 16.8526 10.1777C16.9222 10.257 17.0195 10.2975 17.1173 10.2975Z" fill="#122E5E"/>
<path d="M20.937 16.9507C20.937 16.7562 20.7794 16.5986 20.5849 16.5986H17.117C16.9225 16.5986 16.7649 16.7562 16.7649 16.9507C16.7649 17.1452 16.9225 17.3028 17.117 17.3028H20.5849C20.7794 17.3028 20.937 17.1452 20.937 16.9507Z" fill="#122E5E"/>
<path d="M21.6575 18.3894H17.7529C17.5585 18.3894 17.4009 18.547 17.4009 18.7415C17.4009 18.9359 17.5585 19.0935 17.7529 19.0935H21.6575C21.8519 19.0935 22.0095 18.9359 22.0095 18.7415C22.0095 18.547 21.8519 18.3894 21.6575 18.3894Z" fill="#122E5E"/>
<path d="M21.6575 20.1047H17.7529C17.5585 20.1047 17.4009 20.2623 17.4009 20.4568C17.4009 20.6513 17.5585 20.8089 17.7529 20.8089H21.6575C21.8519 20.8089 22.0095 20.6513 22.0095 20.4568C22.0095 20.2623 21.8519 20.1047 21.6575 20.1047Z" fill="#122E5E"/>
<path d="M21.6575 21.8201H17.7529C17.5585 21.8201 17.4009 21.9777 17.4009 22.1721C17.4009 22.3666 17.5585 22.5242 17.7529 22.5242H21.6575C21.8519 22.5242 22.0095 22.3666 22.0095 22.1721C22.0095 21.9777 21.8519 21.8201 21.6575 21.8201Z" fill="#122E5E"/>
<path d="M31.3388 16.9507C31.3388 16.7562 31.1812 16.5986 30.9868 16.5986H27.5188C27.3244 16.5986 27.1667 16.7562 27.1667 16.9507C27.1667 17.1452 27.3244 17.3028 27.5188 17.3028H30.9868C31.1812 17.3028 31.3388 17.1452 31.3388 16.9507Z" fill="#122E5E"/>
<path d="M30.3508 18.3894H26.4463C26.2519 18.3894 26.0942 18.547 26.0942 18.7415C26.0942 18.9359 26.2519 19.0935 26.4463 19.0935H30.3508C30.5453 19.0935 30.7029 18.9359 30.7029 18.7415C30.7029 18.547 30.5453 18.3894 30.3508 18.3894Z" fill="#122E5E"/>
<path d="M30.3508 20.1047H26.4463C26.2519 20.1047 26.0942 20.2623 26.0942 20.4568C26.0942 20.6513 26.2519 20.8089 26.4463 20.8089H30.3508C30.5453 20.8089 30.7029 20.6513 30.7029 20.4568C30.7029 20.2623 30.5453 20.1047 30.3508 20.1047Z" fill="#122E5E"/>
<path d="M30.3508 21.8201H26.4463C26.2519 21.8201 26.0942 21.9777 26.0942 22.1721C26.0942 22.3666 26.2519 22.5242 26.4463 22.5242H30.3508C30.5453 22.5242 30.7029 22.3666 30.7029 22.1721C30.7029 21.9777 30.5453 21.8201 30.3508 21.8201Z" fill="#122E5E"/>
</g>
<defs>
<clipPath id="clip0_2059_24">
<rect width="24" height="24" fill="white" transform="translate(12.0283 4.73877)"/>
</clipPath>
</defs>
</svg>
