<svg width="24" height="24" viewBox="0 0 24 24" fill="none" xmlns="http://www.w3.org/2000/svg">
<path fill-rule="evenodd" clip-rule="evenodd" d="M10.404 22.4041C4.66517 22.4041 0 17.7389 0 12C0 6.26117 4.66517 1.59595 10.404 1.59595C13.0356 1.59595 15.5052 2.55176 17.4292 4.31544C16.7892 4.69386 16.1716 5.11302 15.5776 5.56673C14.1198 4.39063 12.3071 3.74309 10.404 3.74309C5.85589 3.74309 2.14714 7.45189 2.14714 12C2.14714 16.5481 5.85589 20.2569 10.404 20.2569C16.7323 20.2569 20.4895 13.4925 17.7676 8.23302C18.1801 7.8494 18.6047 7.47758 19.0405 7.11815C19.1692 7.01202 19.299 6.90688 19.4297 6.8028C20.3402 8.37542 20.8082 10.1585 20.8082 12C20.8081 17.7389 16.1429 22.4041 10.404 22.4041Z" fill="#FFCD27"/>
<path fill-rule="evenodd" clip-rule="evenodd" d="M10.6773 17.3485C10.5602 17.3485 10.4626 17.2705 10.4236 17.1728C10.4041 17.1338 8.72536 12.8004 6.12922 11.1607C5.62169 10.8484 5.23138 10.5166 5.3875 9.77479C5.54363 9.05256 6.03167 8.64264 6.91002 8.44743C8.47157 8.11557 10.1503 10.536 10.775 11.5316C12.9611 8.34988 17.3336 3.35275 23.697 2.76716C24.004 2.73117 24.1175 3.18621 23.8337 3.31371C23.7361 3.35275 14.6398 7.51055 10.9506 17.1924C10.892 17.2899 10.7944 17.3485 10.6773 17.3485Z" fill="#FFCD27"/>
</svg>
