<svg width="36" height="37" viewBox="0 0 36 37" fill="none" xmlns="http://www.w3.org/2000/svg">
<path d="M31.1709 19.2956L21.0459 29.4206C20.8348 29.6317 20.5485 29.7503 20.25 29.7503C19.9515 29.7503 19.6652 29.6317 19.4541 29.4206C19.243 29.2095 19.1244 28.9232 19.1244 28.6246C19.1244 28.3261 19.243 28.0398 19.4541 27.8287L27.6595 19.6246H5.625C5.32663 19.6246 5.04048 19.5061 4.82951 19.2951C4.61853 19.0842 4.5 18.798 4.5 18.4996C4.5 18.2013 4.61853 17.9151 4.82951 17.7042C5.04048 17.4932 5.32663 17.3746 5.625 17.3746H27.6595L19.4541 9.17059C19.243 8.95949 19.1244 8.67318 19.1244 8.37465C19.1244 8.07611 19.243 7.78981 19.4541 7.57871C19.6652 7.36762 19.9515 7.24902 20.25 7.24902C20.5485 7.24902 20.8348 7.36762 21.0459 7.57871L31.1709 17.7037C31.2755 17.8082 31.3585 17.9323 31.4151 18.0688C31.4717 18.2054 31.5009 18.3518 31.5009 18.4996C31.5009 18.6475 31.4717 18.7939 31.4151 18.9305C31.3585 19.067 31.2755 19.1911 31.1709 19.2956Z" fill="#003162"/>
</svg>
