<svg width="28" height="28" viewBox="0 0 28 28" fill="none" xmlns="http://www.w3.org/2000/svg">
<path d="M24.5 21V17.5C24.5 17.2679 24.4078 17.0454 24.2437 16.8813C24.0796 16.7172 23.8571 16.625 23.625 16.625C23.3929 16.625 23.1704 16.7172 23.0063 16.8813C22.8422 17.0454 22.75 17.2679 22.75 17.5V21C22.75 21.2321 22.6578 21.4546 22.4937 21.6187C22.3296 21.7828 22.1071 21.875 21.875 21.875H6.125C5.89294 21.875 5.67038 21.7828 5.50628 21.6187C5.34219 21.4546 5.25 21.2321 5.25 21V17.5C5.25 17.2679 5.15781 17.0454 4.99372 16.8813C4.82962 16.7172 4.60706 16.625 4.375 16.625C4.14294 16.625 3.92038 16.7172 3.75628 16.8813C3.59219 17.0454 3.5 17.2679 3.5 17.5V21C3.5 21.6962 3.77656 22.3639 4.26884 22.8562C4.76113 23.3484 5.42881 23.625 6.125 23.625H21.875C22.5712 23.625 23.2389 23.3484 23.7312 22.8562C24.2234 22.3639 24.5 21.6962 24.5 21ZM18.9175 16.4325L14.5425 19.9325C14.388 20.0546 14.1969 20.121 14 20.121C13.8031 20.121 13.612 20.0546 13.4575 19.9325L9.0825 16.4325C8.92309 16.282 8.82597 16.0772 8.81035 15.8585C8.79473 15.6399 8.86175 15.4233 8.99815 15.2517C9.13455 15.0801 9.3304 14.966 9.54694 14.9319C9.76348 14.8977 9.98494 14.9461 10.1675 15.0675L13.125 17.43V5.25C13.125 5.01794 13.2172 4.79538 13.3813 4.63128C13.5454 4.46719 13.7679 4.375 14 4.375C14.2321 4.375 14.4546 4.46719 14.6187 4.63128C14.7828 4.79538 14.875 5.01794 14.875 5.25V17.43L17.8325 15.0675C17.9206 14.9843 18.025 14.9204 18.1392 14.8797C18.2533 14.839 18.3746 14.8224 18.4955 14.831C18.6163 14.8397 18.7341 14.8733 18.8412 14.9298C18.9484 14.9863 19.0427 15.0645 19.1181 15.1593C19.1935 15.2542 19.2484 15.3637 19.2792 15.4808C19.3101 15.598 19.3163 15.7203 19.2975 15.84C19.2786 15.9597 19.2351 16.0741 19.1697 16.1761C19.1043 16.2781 19.0184 16.3654 18.9175 16.4325Z" fill="#FFCD27"/>
</svg>
